<?xml version="1.0" encoding="UTF-8" standalone="no"?>
<!-- Created with Inkscape (http://www.inkscape.org/) -->

<svg
   width="400"
   height="400"
   viewBox="0 0 400 400"
   version="1.1"
   id="svg1"
   inkscape:version="1.4.3 (0d15f75042, 2025-12-25)"
   sodipodi:docname="mascot_00.svg"
   xml:space="preserve"
   inkscape:export-filename="mascot_00.png"
   inkscape:export-xdpi="96"
   inkscape:export-ydpi="96"
   xmlns:inkscape="http://www.inkscape.org/namespaces/inkscape"
   xmlns:sodipodi="http://sodipodi.sourceforge.net/DTD/sodipodi-0.dtd"
   xmlns="http://www.w3.org/2000/svg"
   xmlns:svg="http://www.w3.org/2000/svg"><sodipodi:namedview
     id="namedview1"
     pagecolor="#ffffff"
     bordercolor="#000000"
     borderopacity="0.25"
     inkscape:showpageshadow="2"
     inkscape:pageopacity="0.0"
     inkscape:pagecheckerboard="0"
     inkscape:deskcolor="#d1d1d1"
     inkscape:document-units="px"
     showgrid="true"
     inkscape:zoom="1.0116647"
     inkscape:cx="281.71389"
     inkscape:cy="227.34805"
     inkscape:window-width="1920"
     inkscape:window-height="1011"
     inkscape:window-x="0"
     inkscape:window-y="0"
     inkscape:window-maximized="1"
     inkscape:current-layer="layer1"><inkscape:grid
       id="grid1"
       units="px"
       originx="0"
       originy="0"
       spacingx="1"
       spacingy="1"
       empcolor="#0099e5"
       empopacity="0.45882353"
       color="#e50000"
       opacity="0"
       empspacing="8"
       enabled="true"
       visible="true" /></sodipodi:namedview><defs
     id="defs1" /><g
     inkscape:label="Layer 1"
     inkscape:groupmode="layer"
     id="layer1"><g
       id="g5"
       transform="matrix(5.4890305,0,0,5.4890305,13.937158,-282.11985)"><g
         id="g28"
         transform="translate(-7.8438164,26.311773)"><ellipse
           style="fill:#fff993;fill-opacity:1;stroke:#000000;stroke-width:1;stroke-linecap:round;stroke-dasharray:none;stroke-opacity:1"
           id="path21"
           cx="63.945652"
           cy="49.174919"
           rx="9.2799511"
           ry="10.930117" /><ellipse
           style="fill:#fff993;fill-opacity:1;stroke:#000000;stroke-width:1;stroke-linecap:round;stroke-dasharray:none;stroke-opacity:1"
           id="path21-1"
           cx="19.536409"
           cy="49.174915"
           rx="9.2799511"
           ry="10.930117" /><ellipse
           style="fill:#4085e9;fill-opacity:1;stroke:#000000;stroke-width:1;stroke-linecap:round;stroke-dasharray:none;stroke-opacity:1"
           id="path26"
           cx="42.641491"
           cy="31.47492"
           rx="4.811552"
           ry="4.4322138" /><rect
           style="fill:#fd735e;fill-opacity:1;stroke:#000000;stroke-width:1;stroke-linecap:round;stroke-dasharray:none;stroke-opacity:1"
           id="rect2"
           width="48.926331"
           height="39.225403"
           x="17.711412"
           y="31.377398"
           rx="14.339387"
           ry="14.339387" /><rect
           style="fill:#000000;fill-opacity:1;stroke-width:1.90454;stroke-linecap:round"
           id="rect2-5"
           width="42.608322"
           height="31.010044"
           x="21.33733"
           y="33.669895"
           rx="12.130807"
           ry="12.130807" /><path
           id="path21-14"
           style="fill:#fff993;fill-opacity:1;stroke:none;stroke-width:1.10775;stroke-linecap:round;stroke-dasharray:none;stroke-opacity:1"
           d="m 42.174479,66.914062 a 9.51332,11.204983 0 0 0 -6.604818,3.140625 h 13.209636 a 9.51332,11.204983 0 0 0 -6.604818,-3.140625 z" /></g><path
         style="baseline-shift:baseline;display:inline;overflow:visible;vector-effect:none;fill:#3f86e9;stroke:#000000;stroke-linecap:round;stroke-opacity:1;enable-background:accumulate;stop-color:#000000"
         d="m 45.189453,85.417969 a 2.6666651,2.6666651 0 0 0 -1.28125,3.546875 c 1.91632,4.088394 2.916654,7.352276 2.791016,9.416015 -0.125639,2.063741 -0.821227,3.292771 -3.970703,4.810551 a 2.6666651,2.6666651 0 0 0 -1.244141,3.56054 2.6666651,2.6666651 0 0 0 3.560547,1.24414 c 4.2459,-2.04616 6.746243,-5.47572 6.978515,-9.291012 0.232273,-3.815296 -1.246642,-7.650649 -3.287109,-12.003906 a 2.6666651,2.6666651 0 0 0 -3.546875,-1.283203 z"
         id="path27" /><path
         style="baseline-shift:baseline;display:inline;overflow:visible;vector-effect:none;fill:#3f86e9;stroke:#000000;stroke-linecap:round;stroke-opacity:1;enable-background:accumulate;stop-color:#000000"
         d="m 23.464844,85.585937 a 2.6666651,2.6666651 0 0 0 -3.546875,1.283204 c -2.040467,4.353257 -3.517429,8.186657 -3.285157,12.001953 0.232273,3.815296 2.732615,7.246806 6.978516,9.292966 a 2.6666651,2.6666651 0 0 0 3.558594,-1.24609 2.6666651,2.6666651 0 0 0 -1.244141,-3.55859 c -3.149476,-1.51778 -3.845064,-2.74877 -3.970703,-4.812505 -0.125639,-2.06374 0.876649,-5.327621 2.792969,-9.416016 a 2.6666651,2.6666651 0 0 0 -1.283203,-3.544922 z"
         id="path27-3" /><g
         id="g27"
         transform="translate(-7.8438164,26.311773)"><path
           id="rect22"
           style="fill:#fd735e;stroke:#000000;stroke-width:1;stroke-linecap:round;stroke-dasharray:none;stroke-opacity:1"
           d="m 32.49219,76.70139 c 7.876189,-1.983633 10.732135,-1.925291 18.666667,0 5.333334,3.298614 5.333334,10.666666 5.333334,10.666666 C 54.218541,95.853432 53.319203,96 42.174479,96 c -12.841145,0 -12.702699,2e-6 -15.015622,-8.631944 0,0 0,-7.368052 5.333333,-10.666666 z"
           sodipodi:nodetypes="cccccc" /><path
           id="rect23"
           style="fill:#fff993;fill-opacity:1;stroke:none;stroke-width:1.30274;stroke-linecap:round;stroke-dasharray:none;stroke-opacity:1"
           d="m 37,75.3125 v 0.0052 c 0.01042,-0.0018 0.02084,-0.0034 0.03125,-0.0052 z m 4.802734,0.292968 c -1.976526,-0.0055 -3.954665,0.26382 -6.461588,0.811198 v 3.113282 c 0,0.999033 0.804352,1.803385 1.803385,1.803385 h 10.059896 c 0.999033,0 1.803385,-0.804352 1.803385,-1.803385 v -2.942709 c -2.872225,-0.642719 -5.045569,-0.97578 -7.205078,-0.981771 z" /><path
           style="fill:none;fill-opacity:1;stroke:#000000;stroke-width:0.666667;stroke-linecap:round;stroke-dasharray:none;stroke-opacity:1"
           d="M 27.227722,85.621442 56.000003,85.333336"
           id="path25" /></g><path
         style="fill:none;fill-opacity:1;stroke:#000000;stroke-width:0.666667;stroke-linecap:round;stroke-dasharray:none;stroke-opacity:1"
         d="m 18.333334,90.666669 c 1.47558,1.606176 3.156722,2.201674 5,2"
         id="path31"
         sodipodi:nodetypes="cc" /><path
         style="fill:none;fill-opacity:1;stroke:#000000;stroke-width:0.666667;stroke-linecap:round;stroke-dasharray:none;stroke-opacity:1"
         d="m 16.969905,96.666669 c 1.47558,1.606176 3.156722,2.201674 5,2"
         id="path31-6"
         sodipodi:nodetypes="cc" /><path
         style="fill:none;fill-opacity:1;stroke:#000000;stroke-width:0.666667;stroke-linecap:round;stroke-dasharray:none;stroke-opacity:1"
         d="m 18.050253,103.45466 c 2.179126,0.0923 3.788955,-0.67532 4.949748,-2.12132"
         id="path31-6-6"
         sodipodi:nodetypes="cc" /><path
         style="fill:none;fill-opacity:1;stroke:#000000;stroke-width:0.666667;stroke-linecap:round;stroke-dasharray:none;stroke-opacity:1"
         d="m 50.611072,103.45466 c -2.179126,0.0923 -3.788955,-0.67532 -4.949748,-2.12132"
         id="path31-6-6-6"
         sodipodi:nodetypes="cc" /><path
         style="fill:none;fill-opacity:1;stroke:#000000;stroke-width:0.666667;stroke-linecap:round;stroke-dasharray:none;stroke-opacity:1"
         d="m 50.69142,90.666669 c -1.47558,1.606176 -3.156722,2.201674 -5,2"
         id="path31-7"
         sodipodi:nodetypes="cc" /><path
         style="fill:none;fill-opacity:1;stroke:#000000;stroke-width:0.666667;stroke-linecap:round;stroke-dasharray:none;stroke-opacity:1"
         d="m 51.69142,96.666669 c -1.47558,1.606176 -3.156722,2.201674 -5,2"
         id="path31-7-9"
         sodipodi:nodetypes="cc" /><g
         id="g4"><ellipse
           style="fill:#fff993;fill-opacity:1;stroke:none;stroke-width:4.31908;stroke-linecap:round;stroke-dasharray:none;stroke-opacity:1"
           id="path29"
           cx="34.666668"
           cy="82.666672"
           rx="2.666667"
           ry="5.3333321" /><path
           style="fill:#fff993;fill-opacity:1;stroke:none;stroke-width:5.33333;stroke-linecap:round;stroke-dasharray:none;stroke-opacity:1"
           id="path30"
           sodipodi:type="arc"
           sodipodi:cx="-22.346294"
           sodipodi:cy="-74.666672"
           sodipodi:rx="4.3203735"
           sodipodi:ry="4.3203735"
           sodipodi:start="0"
           sodipodi:end="3.1415927"
           sodipodi:arc-type="slice"
           d="m -18.025921,-74.666672 a 4.3203735,4.3203735 0 0 1 -2.160187,3.741554 4.3203735,4.3203735 0 0 1 -4.320373,-10e-7 4.3203735,4.3203735 0 0 1 -2.160187,-3.741553 h 4.320374 z"
           transform="scale(-1)" /><path
           style="fill:#fff993;fill-opacity:1;stroke:none;stroke-width:5.33333;stroke-linecap:round;stroke-dasharray:none;stroke-opacity:1"
           id="path30-4"
           sodipodi:type="arc"
           sodipodi:cx="-47"
           sodipodi:cy="-74.666672"
           sodipodi:rx="4.3203735"
           sodipodi:ry="4.3203735"
           sodipodi:start="0"
           sodipodi:end="3.1415927"
           sodipodi:arc-type="slice"
           d="m -42.679626,-74.666672 a 4.3203735,4.3203735 0 0 1 -2.160187,3.741554 4.3203735,4.3203735 0 0 1 -4.320374,-10e-7 4.3203735,4.3203735 0 0 1 -2.160187,-3.741553 H -47 Z"
           transform="scale(-1)" /><path
           style="fill:none;fill-opacity:1;stroke:#fff993;stroke-width:0.666667;stroke-linecap:round;stroke-dasharray:none;stroke-opacity:1"
           d="m 24.000001,82.666669 c 2.666667,0 5.333333,2.666666 5.333333,5.333333"
           id="path32"
           sodipodi:nodetypes="cc" /><path
           style="fill:none;fill-opacity:1;stroke:#fff993;stroke-width:0.666667;stroke-linecap:round;stroke-dasharray:none;stroke-opacity:1"
           d="m 45.333335,82.627396 c -2.666667,0 -5.333333,2.666666 -5.333333,5.333333"
           id="path32-0"
           sodipodi:nodetypes="cc" /></g></g></g><inkscape:templateinfo><inkscape:name>default</inkscape:name><inkscape:date>2024-11-24</inkscape:date></inkscape:templateinfo></svg>
