<?xml version="1.0" encoding="UTF-8" standalone="no"?>
<!-- Created with Inkscape (http://www.inkscape.org/) -->

<svg
   width="400"
   height="400"
   viewBox="0 0 400 400"
   version="1.1"
   id="svg1"
   inkscape:version="1.4.3 (0d15f75042, 2025-12-25)"
   sodipodi:docname="mascot_01.svg"
   xml:space="preserve"
   inkscape:export-filename="mascot_01.png"
   inkscape:export-xdpi="96"
   inkscape:export-ydpi="96"
   xmlns:inkscape="http://www.inkscape.org/namespaces/inkscape"
   xmlns:sodipodi="http://sodipodi.sourceforge.net/DTD/sodipodi-0.dtd"
   xmlns="http://www.w3.org/2000/svg"
   xmlns:svg="http://www.w3.org/2000/svg"><sodipodi:namedview
     id="namedview1"
     pagecolor="#ffffff"
     bordercolor="#000000"
     borderopacity="0.25"
     inkscape:showpageshadow="2"
     inkscape:pageopacity="0.0"
     inkscape:pagecheckerboard="0"
     inkscape:deskcolor="#d1d1d1"
     inkscape:document-units="px"
     showgrid="true"
     inkscape:zoom="1.4307099"
     inkscape:cx="171.94261"
     inkscape:cy="168.44784"
     inkscape:window-width="1920"
     inkscape:window-height="1011"
     inkscape:window-x="0"
     inkscape:window-y="0"
     inkscape:window-maximized="1"
     inkscape:current-layer="layer1"><inkscape:grid
       id="grid1"
       units="px"
       originx="0"
       originy="0"
       spacingx="1"
       spacingy="1"
       empcolor="#0099e5"
       empopacity="0.45882353"
       color="#e50000"
       opacity="0"
       empspacing="8"
       enabled="true"
       visible="true" /></sodipodi:namedview><defs
     id="defs1" /><g
     inkscape:label="Layer 1"
     inkscape:groupmode="layer"
     id="layer1"><g
       id="g28"
       transform="matrix(5.4890305,0,0,5.4890305,-29.117789,-137.69373)"><ellipse
         style="fill:#fff993;fill-opacity:1;stroke:#000000;stroke-width:1;stroke-linecap:round;stroke-dasharray:none;stroke-opacity:1"
         id="path21"
         cx="63.945652"
         cy="49.174919"
         rx="9.2799511"
         ry="10.930117" /><ellipse
         style="fill:#fff993;fill-opacity:1;stroke:#000000;stroke-width:1;stroke-linecap:round;stroke-dasharray:none;stroke-opacity:1"
         id="path21-1"
         cx="19.536409"
         cy="49.174915"
         rx="9.2799511"
         ry="10.930117" /><ellipse
         style="fill:#4085e9;fill-opacity:1;stroke:#000000;stroke-width:1;stroke-linecap:round;stroke-dasharray:none;stroke-opacity:1"
         id="path26"
         cx="42.641491"
         cy="31.47492"
         rx="4.811552"
         ry="4.4322138" /><rect
         style="fill:#fd735e;fill-opacity:1;stroke:#000000;stroke-width:1;stroke-linecap:round;stroke-dasharray:none;stroke-opacity:1"
         id="rect2"
         width="48.926331"
         height="39.225403"
         x="17.711412"
         y="31.377398"
         rx="14.339387"
         ry="14.339387" /><rect
         style="fill:#000000;fill-opacity:1;stroke-width:1.90454;stroke-linecap:round"
         id="rect2-5"
         width="42.608322"
         height="31.010044"
         x="21.33733"
         y="33.669895"
         rx="12.130807"
         ry="12.130807" /><path
         id="path21-14"
         style="fill:#fff993;fill-opacity:1;stroke:none;stroke-width:1.10775;stroke-linecap:round;stroke-dasharray:none;stroke-opacity:1"
         d="m 42.174479,66.914062 a 9.51332,11.204983 0 0 0 -6.604818,3.140625 h 13.209636 a 9.51332,11.204983 0 0 0 -6.604818,-3.140625 z" /></g><path
       style="baseline-shift:baseline;display:inline;overflow:visible;vector-effect:none;fill:#3f86e9;stroke:#000000;stroke-width:5.48903;stroke-linecap:round;stroke-opacity:1;enable-background:accumulate;stop-color:#000000"
       d="m 351.21394,370.74713 a 14.637406,14.637406 0 0 1 -18.73955,-8.79364 c -8.43054,-23.30628 -17.21611,-39.85712 -25.71381,-47.37953 -8.49771,-7.52241 -15.96779,-9.59288 -34.08295,-3.25973 a 14.637406,14.637406 0 0 1 -18.64856,-8.9907 14.637406,14.637406 0 0 1 8.99075,-18.64858 c 24.42155,-8.53792 47.43747,-4.93132 63.14741,8.97557 C 341.87718,306.55741 351.02329,327.18384 360,352 a 14.637406,14.637406 0 0 1 -8.78606,18.74713 z"
       id="path27" /><path
       style="baseline-shift:baseline;display:inline;overflow:visible;vector-effect:none;fill:#3f86e9;stroke:#000000;stroke-width:5.48903;stroke-linecap:round;stroke-opacity:1;enable-background:accumulate;stop-color:#000000"
       d="m 57.202016,233.91356 a 14.637406,14.637406 0 0 0 -8.786056,18.74713 c 8.976701,24.81616 18.122816,45.42743 33.832772,59.33434 15.709952,13.9069 38.733438,17.52106 63.155008,8.98313 a 14.637406,14.637406 0 0 0 8.97559,-18.64856 14.637406,14.637406 0 0 0 -18.64099,-8.98314 c -18.11516,6.33315 -25.59285,4.25508 -34.09054,-3.26731 -8.497701,-7.52241 -17.275692,-24.08082 -25.706238,-47.38711 a 14.637406,14.637406 0 0 0 -18.739546,-8.77848 z"
       id="path27-3" /><g
       id="g27"
       transform="matrix(5.4890305,0,0,5.4890305,-29.117789,-137.69373)"><path
         id="rect22"
         style="fill:#fd735e;stroke:#000000;stroke-width:1;stroke-linecap:round;stroke-dasharray:none;stroke-opacity:1"
         d="m 32.49219,76.70139 c 7.876189,-1.983633 10.732135,-1.925291 18.666667,0 5.333334,3.298614 5.333334,10.666666 5.333334,10.666666 C 54.218541,95.853432 53.319203,96 42.174479,96 c -12.841145,0 -12.702699,2e-6 -15.015622,-8.631944 0,0 0,-7.368052 5.333333,-10.666666 z"
         sodipodi:nodetypes="cccccc" /><path
         id="rect23"
         style="fill:#fff993;fill-opacity:1;stroke:none;stroke-width:1.30274;stroke-linecap:round;stroke-dasharray:none;stroke-opacity:1"
         d="m 37,75.3125 v 0.0052 c 0.01042,-0.0018 0.02084,-0.0034 0.03125,-0.0052 z m 4.802734,0.292968 c -1.976526,-0.0055 -3.954665,0.26382 -6.461588,0.811198 v 3.113282 c 0,0.999033 0.804352,1.803385 1.803385,1.803385 h 10.059896 c 0.999033,0 1.803385,-0.804352 1.803385,-1.803385 v -2.942709 c -2.872225,-0.642719 -5.045569,-0.97578 -7.205078,-0.981771 z" /><path
         style="fill:none;fill-opacity:1;stroke:#000000;stroke-width:0.666667;stroke-linecap:round;stroke-dasharray:none;stroke-opacity:1"
         d="M 27.227722,85.621442 56.000003,85.333336"
         id="path25" /></g><path
       style="fill:none;fill-opacity:1;stroke:#000000;stroke-width:3.65936;stroke-linecap:round;stroke-dasharray:none;stroke-opacity:1"
       d="m 57.004933,273.55065 c 11.961313,0.50689 20.797708,-3.70686 27.169313,-11.64399"
       id="path31"
       sodipodi:nodetypes="cc" /><path
       style="fill:none;fill-opacity:1;stroke:#000000;stroke-width:3.65936;stroke-linecap:round;stroke-dasharray:none;stroke-opacity:1"
       d="m 75.000994,302.13055 c 11.961319,0.50689 20.797715,-3.70686 27.169326,-11.64399"
       id="path31-6"
       sodipodi:nodetypes="cc" /><path
       style="fill:none;fill-opacity:1;stroke:#000000;stroke-width:3.65936;stroke-linecap:round;stroke-dasharray:none;stroke-opacity:1"
       d="m 105.54062,324.2838 c 8.81616,-8.09966 12.08506,-17.32733 10.97807,-27.44515"
       id="path31-6-6"
       sodipodi:nodetypes="cc" /><path
       style="fill:none;fill-opacity:1;stroke:#000000;stroke-width:3.65936;stroke-linecap:round;stroke-dasharray:none;stroke-opacity:1"
       d="m 302.25068,279.69767 c -8.81616,8.09966 -12.08505,17.32733 -10.97807,27.44516"
       id="path31-6-6-6"
       sodipodi:nodetypes="cc" /><path
       style="fill:none;fill-opacity:1;stroke:#000000;stroke-width:3.65936;stroke-linecap:round;stroke-dasharray:none;stroke-opacity:1"
       d="m 352.19696,329.02024 c -11.96132,-0.50689 -20.79771,3.70685 -27.16932,11.64399"
       id="path31-7"
       sodipodi:nodetypes="cc" /><path
       style="fill:none;fill-opacity:1;stroke:#000000;stroke-width:3.65936;stroke-linecap:round;stroke-dasharray:none;stroke-opacity:1"
       d="m 332.7903,301.85092 c -11.96131,-0.50689 -20.7977,3.70686 -27.16932,11.64399"
       id="path31-7-9"
       sodipodi:nodetypes="cc" /><path
       style="fill:none;stroke:#fff993;stroke-width:8;stroke-linecap:round;stroke-dasharray:none;stroke-opacity:1"
       d="m 176,176 c 18.99616,10.66667 37.66282,10.66667 56,0"
       id="path1"
       sodipodi:nodetypes="cc" /><path
       style="fill:none;stroke:#fff993;stroke-width:8;stroke-linecap:round;stroke-dasharray:none;stroke-opacity:1"
       d="m 164,124 c -18.99616,-10.66667 -37.66282,-10.66667 -56,0"
       id="path1-3"
       sodipodi:nodetypes="cc" /><path
       style="fill:none;stroke:#fff993;stroke-width:8;stroke-linecap:round;stroke-dasharray:none;stroke-opacity:1"
       d="m 300,123.90053 c -18.99616,-10.66667 -37.66282,-10.66667 -56,0"
       id="path1-3-1"
       sodipodi:nodetypes="cc" /></g><inkscape:templateinfo><inkscape:name>default</inkscape:name><inkscape:date>2024-11-24</inkscape:date></inkscape:templateinfo></svg>
