<?xml version="1.0" encoding="UTF-8" standalone="no"?>
<!-- Created with Inkscape (http://www.inkscape.org/) -->

<svg
   width="1024"
   height="576"
   viewBox="0 0 341.33333 192"
   version="1.1"
   id="svg1"
   inkscape:version="1.4.3 (0d15f75042, 2025-12-25)"
   sodipodi:docname="thumbnail.svg"
   xml:space="preserve"
   inkscape:export-filename="thumbnail.png"
   inkscape:export-xdpi="120"
   inkscape:export-ydpi="120"
   xmlns:inkscape="http://www.inkscape.org/namespaces/inkscape"
   xmlns:sodipodi="http://sodipodi.sourceforge.net/DTD/sodipodi-0.dtd"
   xmlns="http://www.w3.org/2000/svg"
   xmlns:svg="http://www.w3.org/2000/svg"><sodipodi:namedview
     id="namedview1"
     pagecolor="#ffffff"
     bordercolor="#000000"
     borderopacity="0.25"
     inkscape:showpageshadow="2"
     inkscape:pageopacity="0.0"
     inkscape:pagecheckerboard="true"
     inkscape:deskcolor="#d1d1d1"
     inkscape:document-units="px"
     showgrid="true"
     inkscape:zoom="0.71417785"
     inkscape:cx="537.6812"
     inkscape:cy="278.64208"
     inkscape:window-width="1920"
     inkscape:window-height="1011"
     inkscape:window-x="0"
     inkscape:window-y="0"
     inkscape:window-maximized="1"
     inkscape:current-layer="layer1"><inkscape:grid
       id="grid1"
       units="px"
       originx="0"
       originy="0"
       spacingx="0.33333333"
       spacingy="0.33333333"
       empcolor="#0099e5"
       empopacity="0.30196078"
       color="#0099e5"
       opacity="0.14902"
       empspacing="8"
       enabled="true"
       visible="true" /></sodipodi:namedview><defs
     id="defs1"><style
       id="style1">.cls-1{fill:#5865f2;}</style><style
       id="style1-2">.cls-1{fill:#fff;}</style></defs><g
     inkscape:label="Layer 1"
     inkscape:groupmode="layer"
     id="layer1"><circle
       style="fill:#e0e3ff;fill-opacity:1;stroke:none;stroke-width:0.666667;stroke-linecap:round;stroke-dasharray:none;stroke-opacity:1"
       id="path33-8"
       cx="296.07922"
       cy="51.247524"
       r="18.666668" /><rect
       style="fill:#5865f2;fill-opacity:1;stroke-width:0.287012"
       id="rect1"
       width="341.33334"
       height="192"
       x="-2.1316282e-14"
       y="7.9936058e-15" /><g
       id="g21"
       transform="translate(0,76.567657)"><g
         fill="#ffffff"
         id="g20"
         transform="matrix(0.09699275,0,0,0.09699275,38.276817,77.134102)"><path
           d="m 0,0 c -3.611,0 -6.636,-1.659 -9.09,-4.967 -2.441,-3.311 -3.668,-7.958 -3.668,-13.938 0,-5.993 1.166,-10.581 3.503,-13.778 2.333,-3.207 5.398,-4.804 9.2,-4.804 3.8,0 6.887,1.617 9.258,4.862 2.371,3.233 3.559,7.861 3.559,13.886 0,6.02 -1.227,10.654 -3.673,13.89 C 6.646,-1.617 3.616,0 0,0 m -0.055,-59.493 c -10.573,0 -19.195,3.46 -25.859,10.379 -6.655,6.925 -9.984,17.03 -9.984,30.314 0,13.292 3.367,23.356 10.101,30.209 6.736,6.844 15.431,10.269 26.082,10.269 10.649,0 19.251,-3.363 25.794,-10.109 6.555,-6.733 9.827,-16.94 9.827,-30.591 0,-13.661 -3.348,-23.822 -10.05,-30.49 -6.702,-6.654 -15.333,-9.981 -25.911,-9.981"
           transform="matrix(1.4138169,0,0,-1.4138169,570.06192,153.35415)"
           id="path1" /><path
           d="m 0,0 v -33.768 c 0,-1.577 0.116,-2.571 0.342,-2.988 0.224,-0.415 0.903,-0.623 2.029,-0.623 4.144,0 7.283,1.548 9.429,4.634 2.151,3.083 3.215,8.216 3.215,15.405 0,7.192 -1.113,11.878 -3.325,14.055 C 9.467,-1.102 5.946,0 1.129,0 Z m -21.675,-52.392 v 67.735 c 0,1.883 0.468,3.369 1.413,4.471 0.939,1.085 2.161,1.636 3.671,1.636 H 2.263 c 11.965,0 21.053,-3.018 27.257,-9.04 6.215,-6.02 9.322,-15.499 9.322,-28.447 0,-27.7 -11.821,-41.547 -35.456,-41.547 h -19.302 c -3.836,0 -5.759,1.727 -5.759,5.192"
           transform="matrix(1.4138169,0,0,-1.4138169,665.56438,154.46003)"
           id="path2" /><path
           d="m 0,0 c -3.612,0 -6.645,-1.659 -9.095,-4.967 -2.44,-3.311 -3.662,-7.958 -3.662,-13.938 0,-5.993 1.169,-10.581 3.499,-13.778 2.33,-3.207 5.398,-4.804 9.2,-4.804 3.801,0 6.89,1.617 9.258,4.862 2.372,3.233 3.56,7.861 3.56,13.886 0,6.02 -1.225,10.654 -3.671,13.89 C 6.642,-1.617 3.616,0 0,0 m -0.058,-59.493 c -10.577,0 -19.193,3.46 -25.851,10.379 -6.663,6.925 -9.993,17.03 -9.993,30.314 0,13.292 3.367,23.356 10.1,30.209 6.741,6.844 15.431,10.269 26.086,10.269 10.651,0 19.246,-3.363 25.797,-10.109 6.55,-6.733 9.822,-16.94 9.822,-30.591 0,-13.661 -3.349,-23.822 -10.05,-30.49 -6.699,-6.654 -15.338,-9.981 -25.911,-9.981"
           transform="matrix(1.4138169,0,0,-1.4138169,781.76333,153.35415)"
           id="path3" /><path
           d="m 0,0 c 0,-1.496 -3.721,-2.255 -11.176,-2.255 -7.448,0 -11.18,0.759 -11.18,2.255 v 56.681 h -13.545 c -1.281,0 -2.185,1.727 -2.71,5.198 -0.226,1.652 -0.334,3.343 -0.334,5.077 0,1.724 0.108,3.422 0.334,5.077 0.525,3.462 1.429,5.202 2.71,5.202 h 49.112 c 1.279,0 2.179,-1.74 2.712,-5.202 0.221,-1.655 0.335,-3.353 0.335,-5.077 0,-1.734 -0.114,-3.425 -0.335,-5.077 C 15.39,58.408 14.49,56.681 13.211,56.681 H 0 Z"
           transform="matrix(1.4138169,0,0,-1.4138169,892.01415,233.32981)"
           id="path4" /><path
           d="m 0,0 c -6.078,0.094 -13.034,-1.173 -13.034,-1.173 v -11.863 h 6.995 l -0.078,-5.288 c 0,-1.959 -1.942,-2.943 -5.815,-2.943 -3.878,0 -7.303,1.642 -10.274,4.917 -2.978,3.279 -4.459,8.072 -4.459,14.388 0,6.329 1.447,10.995 4.345,14.006 2.892,3.008 6.683,4.517 11.346,4.517 1.959,0 3.987,-0.316 6.096,-0.961 2.11,-0.639 3.519,-1.238 4.238,-1.799 0.713,-0.577 1.391,-0.85 2.032,-0.85 0.638,0 1.671,0.746 3.1,2.255 1.431,1.505 2.713,3.786 3.844,6.827 1.126,3.057 1.69,5.4 1.69,7.062 0,1.649 -0.036,2.786 -0.109,3.386 -1.581,1.73 -4.499,3.102 -8.755,4.122 -4.248,1.017 -9.011,1.522 -14.28,1.522 -11.594,0 -20.66,-3.65 -27.207,-10.95 -6.552,-7.303 -9.822,-16.783 -9.822,-28.452 0,-13.701 3.347,-24.087 10.041,-31.162 6.706,-7.074 15.51,-10.607 26.425,-10.607 5.87,0 11.08,0.505 15.632,1.522 4.557,1.013 7.586,2.053 9.093,3.105 l 0.452,35.33 C 11.496,-1.036 6.078,-0.104 0,0"
           transform="matrix(1.4138169,0,0,-1.4138169,491.08187,176.60776)"
           id="path5" /><g
           transform="matrix(1.25,0,0,-1.25,-94.249997,597.49874)"
           id="g15"><path
             d="m 0,0 c -0.624,-1.28 -1.771,-2.454 -3.449,-3.516 -1.676,-1.069 -3.805,-1.6 -6.391,-1.6 -3.412,0 -6.156,1.075 -8.24,3.249 -2.076,2.157 -3.116,5.266 -3.116,9.323 v 10.116 c 0,3.969 0.98,7.013 2.946,9.138 1.962,2.108 4.59,3.177 7.872,3.177 3.208,0 5.695,-0.844 7.455,-2.513 1.755,-1.675 2.677,-4.015 2.757,-7.003 L -0.21,20.238 h -2.619 c -0.094,2.29 -0.759,4.057 -2.01,5.305 -1.244,1.238 -3.095,1.864 -5.539,1.864 -2.473,0 -4.432,-0.837 -5.866,-2.516 -1.43,-1.675 -2.143,-4.103 -2.143,-7.293 V 7.424 c 0,-3.308 0.771,-5.83 2.311,-7.567 1.54,-1.724 3.616,-2.588 6.236,-2.588 1.913,0 3.451,0.339 4.602,1.033 1.155,0.684 1.956,1.519 2.409,2.51 v 8.861 h -7.06 v 2.463 H 0 Z"
             transform="matrix(1.1310535,0,0,1.1310535,441.34721,235.75121)"
             id="path6" /><path
             d="m 0,0 c 1.553,0 2.936,0.44 4.144,1.336 1.21,0.9 2.058,2.037 2.561,3.422 v 5.468 H 2.213 c -1.91,0 -3.44,-0.541 -4.585,-1.623 C -3.52,7.528 -4.088,6.185 -4.088,4.588 -4.088,3.239 -3.733,2.131 -3.014,1.277 -2.296,0.42 -1.292,0 0,0 M 7.124,-2.04 C 6.984,-1.164 6.875,-0.453 6.806,0.104 6.739,0.671 6.705,1.235 6.705,1.808 5.938,0.554 4.948,-0.486 3.725,-1.301 2.504,-2.122 1.146,-2.529 -0.35,-2.529 c -2.092,0 -3.701,0.648 -4.84,1.946 -1.132,1.303 -1.704,3.059 -1.704,5.276 0,2.343 0.823,4.223 2.473,5.618 1.649,1.395 3.89,2.092 6.709,2.092 h 4.417 v 3.106 c 0,1.786 -0.456,3.193 -1.351,4.21 -0.914,1.004 -2.17,1.512 -3.791,1.512 -1.508,0 -2.752,-0.479 -3.728,-1.45 -0.973,-0.965 -1.456,-2.144 -1.456,-3.549 l -2.623,0.023 -0.046,0.137 c -0.074,1.906 0.647,3.591 2.168,5.084 1.515,1.489 3.459,2.229 5.825,2.229 2.338,0 4.22,-0.711 5.657,-2.128 1.429,-1.431 2.146,-3.471 2.146,-6.124 V 3.057 c 0,-0.903 0.042,-1.78 0.121,-2.617 0.081,-0.848 0.212,-1.665 0.417,-2.48 z"
             transform="matrix(1.1310535,0,0,1.1310535,456.01527,232.82495)"
             id="path7" /><path
             d="m 0,0 0.24,-3.923 c 0.664,1.404 1.554,2.486 2.657,3.255 1.107,0.759 2.41,1.138 3.906,1.138 1.527,0 2.814,-0.444 3.852,-1.343 1.039,-0.896 1.805,-2.252 2.292,-4.074 0.623,1.682 1.505,3.011 2.65,3.973 1.145,0.964 2.534,1.444 4.143,1.444 2.217,0 3.937,-0.897 5.156,-2.692 1.224,-1.799 1.834,-4.559 1.834,-8.288 v -14.765 h -2.823 v 14.814 c 0,3.1 -0.429,5.283 -1.263,6.538 -0.839,1.257 -2.042,1.89 -3.598,1.89 -1.637,0 -2.915,-0.691 -3.834,-2.096 -0.914,-1.405 -1.478,-3.161 -1.683,-5.282 v -0.655 -15.209 H 10.72 v 14.798 c 0,3.027 -0.424,5.194 -1.292,6.488 -0.864,1.294 -2.066,1.936 -3.609,1.936 -1.475,0 -2.668,-0.45 -3.562,-1.342 -0.9,-0.897 -1.54,-2.125 -1.928,-3.683 V -25.275 H -2.477 V 0 Z"
             transform="matrix(1.1310535,0,0,1.1310535,476.7303,259.10521)"
             id="path8" /><path
             d="m 0,0 c -1.758,0 -3.202,-0.802 -4.334,-2.402 -1.133,-1.606 -1.718,-3.585 -1.765,-5.944 h 11.66 v 1.082 c 0,2.086 -0.489,3.823 -1.469,5.201 C 3.106,-0.684 1.745,0 0,0 m 0.397,-23.76 c -2.725,0 -4.954,1.026 -6.685,3.073 -1.726,2.043 -2.591,4.657 -2.591,7.841 v 4.197 c 0,3.19 0.867,5.85 2.602,7.965 1.739,2.105 3.828,3.158 6.277,3.158 2.648,0 4.699,-0.939 6.164,-2.823 1.468,-1.887 2.201,-4.422 2.201,-7.603 v -2.773 H -6.099 v -2.102 c 0,-2.447 0.586,-4.484 1.752,-6.11 1.168,-1.63 2.755,-2.438 4.744,-2.438 1.382,0 2.585,0.244 3.588,0.724 1.003,0.491 1.863,1.179 2.578,2.082 l 1.149,-1.988 C 6.949,-21.525 5.96,-22.307 4.753,-22.887 3.549,-23.464 2.094,-23.76 0.397,-23.76"
             transform="matrix(1.1310535,0,0,1.1310535,522.82277,256.83868)"
             id="path9" /><path
             d="M 0,0 C -1.763,0 -3.21,-0.802 -4.341,-2.402 -5.467,-4.008 -6.053,-5.987 -6.104,-8.346 H 5.559 v 1.082 c 0,2.086 -0.488,3.823 -1.474,5.201 C 3.104,-0.684 1.744,0 0,0 m 0.394,-23.76 c -2.726,0 -4.951,1.026 -6.679,3.073 -1.733,2.043 -2.6,4.657 -2.6,7.841 v 4.197 c 0,3.19 0.871,5.85 2.602,7.965 1.744,2.105 3.834,3.158 6.283,3.158 2.643,0 4.703,-0.939 6.164,-2.823 1.463,-1.887 2.197,-4.422 2.197,-7.603 v -2.773 H -6.104 v -2.102 c 0,-2.447 0.587,-4.484 1.76,-6.11 1.162,-1.63 2.742,-2.438 4.738,-2.438 1.387,0 2.585,0.244 3.585,0.724 1.007,0.491 1.866,1.179 2.589,2.082 l 1.141,-1.988 c -0.764,-0.968 -1.75,-1.75 -2.959,-2.33 -1.204,-0.577 -2.658,-0.873 -4.356,-0.873"
             transform="matrix(1.1310535,0,0,1.1310535,558.0805,256.83868)"
             id="path10" /><path
             d="m 0,0 0.23,-4.178 c 0.674,1.483 1.564,2.634 2.682,3.435 1.108,0.805 2.413,1.213 3.914,1.213 2.258,0 3.988,-0.835 5.189,-2.513 1.214,-1.675 1.815,-4.279 1.815,-7.812 v -15.42 h -2.825 v 15.394 c 0,2.888 -0.423,4.905 -1.264,6.075 -0.836,1.17 -2.065,1.753 -3.665,1.753 -1.435,0 -2.638,-0.466 -3.603,-1.414 C 1.504,-4.406 0.782,-5.657 0.301,-7.234 V -25.275 H -2.504 V 0 Z"
             transform="matrix(1.1310535,0,0,1.1310535,575.91679,259.10521)"
             id="path11" /><path
             d="m 0,0 c 0,-2.565 0.486,-4.605 1.472,-6.123 0.974,-1.532 2.457,-2.288 4.436,-2.288 1.356,0 2.498,0.361 3.435,1.101 0.934,0.74 1.672,1.77 2.218,3.077 v 12.52 c -0.525,1.346 -1.246,2.434 -2.157,3.272 -0.91,0.824 -2.062,1.238 -3.448,1.238 -1.975,0 -3.468,-0.86 -4.46,-2.587 C 0.497,8.48 0,6.224 0,3.454 Z m -2.833,3.454 c 0,3.582 0.723,6.459 2.177,8.627 1.442,2.157 3.448,3.239 6.004,3.239 1.419,0 2.664,-0.346 3.728,-1.04 1.066,-0.681 1.947,-1.678 2.654,-2.946 l 0.274,3.516 h 2.381 v -25.298 c 0,-3.239 -0.751,-5.749 -2.26,-7.525 -1.511,-1.769 -3.657,-2.665 -6.428,-2.665 -0.996,0 -2.067,0.156 -3.212,0.459 -1.147,0.303 -2.162,0.701 -3.052,1.2 l 0.776,2.463 c 0.759,-0.492 1.608,-0.873 2.548,-1.141 0.932,-0.277 1.895,-0.41 2.894,-0.41 2.009,0 3.498,0.645 4.46,1.932 0.966,1.304 1.45,3.19 1.45,5.687 v 3.057 c -0.717,-1.138 -1.597,-2.011 -2.64,-2.614 -1.039,-0.606 -2.253,-0.909 -3.622,-0.909 -2.539,0 -4.53,0.994 -5.968,2.982 C -2.11,-5.948 -2.833,-3.301 -2.833,0 Z"
             transform="matrix(1.1310535,0,0,1.1310535,600.8685,242.30884)"
             id="path12" /><path
             d="m 627.82321,230.5176 h -3.20089 v 28.58738 h 3.20089 z m 0,36.72644 h -3.20089 v 4.50385 h 3.20089 z"
             id="path13" /><path
             d="m 0,0 0.23,-4.178 c 0.676,1.483 1.562,2.634 2.678,3.435 1.115,0.805 2.422,1.213 3.916,1.213 2.258,0 3.995,-0.835 5.199,-2.513 1.211,-1.675 1.807,-4.279 1.807,-7.812 v -15.42 h -2.825 v 15.394 c 0,2.888 -0.422,4.905 -1.261,6.075 -0.843,1.17 -2.063,1.753 -3.668,1.753 -1.434,0 -2.635,-0.466 -3.599,-1.414 C 1.51,-4.406 0.785,-5.657 0.306,-7.234 V -25.275 H -2.503 V 0 Z"
             transform="matrix(1.1310535,0,0,1.1310535,638.15379,259.10521)"
             id="path14" /><path
             d="M 0,0 C -1.763,0 -3.208,-0.802 -4.334,-2.402 -5.463,-4.008 -6.052,-5.987 -6.102,-8.346 H 5.56 v 1.082 c 0,2.086 -0.486,3.823 -1.47,5.201 C 3.109,-0.684 1.747,0 0,0 m 0.401,-23.76 c -2.733,0 -4.958,1.026 -6.681,3.073 -1.73,2.043 -2.595,4.657 -2.595,7.841 v 4.197 c 0,3.19 0.865,5.85 2.6,7.965 1.739,2.105 3.831,3.158 6.275,3.158 2.646,0 4.706,-0.939 6.172,-2.823 1.462,-1.887 2.195,-4.422 2.195,-7.603 v -2.773 H -6.102 v -2.102 c 0,-2.447 0.59,-4.484 1.757,-6.11 1.166,-1.63 2.748,-2.438 4.746,-2.438 1.382,0 2.579,0.244 3.578,0.724 1.012,0.491 1.869,1.179 2.591,2.082 l 1.147,-1.988 c -0.769,-0.968 -1.755,-1.75 -2.962,-2.33 -1.203,-0.577 -2.658,-0.873 -4.354,-0.873"
             transform="matrix(1.1310535,0,0,1.1310535,669.70883,256.83868)"
             id="path15" /></g><path
           d="m 181.9082,48.951172 c -15.35819,3.414273 -30.55119,8.168521 -44.79492,15.33789 0.32574,12.577316 1.13879,24.628133 2.78711,36.869138 -5.5316,3.54397 -11.34506,6.58567 -16.51172,10.73438 -5.2496,4.03861 -10.61179,7.90171 -15.36523,12.625 C 98.527111,118.23646 88.477465,112.33344 78.123047,107.12305 66.96181,119.13483 56.525128,132.09977 48,146.60742 c 6.699845,10.51682 13.885852,21.08679 20.541016,29.33008 v 71.6543 9.10156 8.2832 c 0.162871,10e-4 0.326917,0.006 0.488281,0.0215 l 54.585933,5.26367 c 2.85931,0.27598 5.09977,2.57801 5.29883,5.44336 l 1.6836,24.0957 47.61523,3.39844 3.2793,-22.24024 c 0.42528,-2.88343 2.8998,-5.02148 5.8164,-5.02148 h 57.58985 c 2.9151,0 5.38918,2.13805 5.81445,5.02148 l 3.2793,22.24024 47.61719,-3.39844 1.68164,-24.0957 c 0.20057,-2.86535 2.43953,-5.16588 5.29882,-5.44336 l 54.56446,-5.26367 c 0.16136,-0.015 0.32348,-0.02 0.48632,-0.0215 v -7.10547 l 0.0234,-0.006 V 175.9375 c 7.68652,-9.6765 14.96452,-20.34983 20.54102,-29.33008 -8.52211,-14.50765 -18.96376,-27.47259 -30.125,-39.48437 -10.35139,5.21039 -20.40601,11.11341 -29.90235,17.39453 -4.75192,-4.72329 -10.10418,-8.58639 -15.36132,-12.625 -5.16515,-4.14871 -10.98676,-7.19041 -16.50782,-10.73438 1.64381,-12.241005 2.45791,-24.291822 2.78516,-36.869138 -14.24524,-7.169369 -29.437,-11.923617 -44.80273,-15.33789 -6.13484,10.310684 -11.74472,21.477157 -16.63086,32.392578 -5.79402,-0.968181 -11.61467,-1.327114 -17.44336,-1.396484 v -0.0098 c -0.0408,0 -0.0786,0.0098 -0.11328,0.0098 -0.0362,0 -0.0752,-0.0098 -0.11133,-0.0098 v 0.0098 c -5.83926,0.06937 -11.65565,0.428303 -17.45117,1.396484 C 193.65788,70.428329 188.05209,59.261856 181.9082,48.951172 Z M 138.72266,179.20312 c 18.16924,0 32.89648,14.7157 32.89648,32.87891 0,18.17528 -14.72724,32.89844 -32.89648,32.89844 -18.1602,0 -32.89063,-14.72316 -32.89063,-32.89844 0,-18.16321 14.73043,-32.8789 32.89063,-32.87891 z m 154.76367,0 c 18.15868,0 32.88672,14.7157 32.88672,32.87891 0,18.17528 -14.72804,32.89844 -32.88672,32.89844 -18.17227,0 -32.89844,-14.72316 -32.89844,-32.89844 0,-18.16321 14.72617,-32.87891 32.89844,-32.87891 z m -77.38672,19.24024 c 5.8483,0 10.59961,4.31463 10.59961,9.62305 v 30.2832 c 0,5.31294 -4.75131,9.62305 -10.59961,9.62305 -5.8483,0 -10.58789,-4.31011 -10.58789,-9.62305 v -30.2832 c 0,-5.30842 4.73959,-9.62305 10.58789,-9.62305 z"
           stroke-width="1.50807"
           transform="scale(0.93749999)"
           id="path16" /><g
           stroke-width="1.41382"
           id="g19"><path
             d="m 295.00412,263.89328 -1.58489,22.71014 c -0.19086,2.73715 -2.36814,4.91584 -5.10529,5.11236 l -54.50971,3.88941 c -0.1329,0.01 -0.2658,0.0141 -0.39728,0.0141 -2.70888,0 -5.04592,-1.98783 -5.44603,-4.70801 l -3.12595,-21.19877 h -44.47726 l -3.12595,21.19877 c -0.41991,2.85308 -2.97043,4.90453 -5.84331,4.69387 l -54.50971,-3.88941 c -2.73715,-0.19652 -4.91442,-2.37521 -5.10529,-5.11236 l -1.58489,-22.71014 -46.015498,-4.43656 c 0.02121,4.94553 0.08483,10.36328 0.08483,11.44202 0,48.59854 61.649488,71.95763 138.244428,72.22625 h 0.0933 0.0947 c 76.59494,-0.26862 138.22322,-23.62771 138.22322,-72.22625 0,-1.09853 0.0664,-6.49366 0.0891,-11.44202 z"
             id="path17" /><path
             d="m 153.47185,200.6558 c 0,11.30205 -9.16012,20.46217 -20.47065,20.46217 -11.30488,0 -20.47066,-9.16012 -20.47066,-20.46217 0,-11.30205 9.16578,-20.47065 20.47066,-20.47065 11.31053,0 20.47065,9.1686 20.47065,20.47065"
             id="path18" /><path
             d="m 251.72267,200.6558 c 0,11.30205 9.15729,20.46217 20.45934,20.46217 11.31337,0 20.47066,-9.16012 20.47066,-20.46217 0,-11.30205 -9.15729,-20.47065 -20.47066,-20.47065 -11.30205,0 -20.45934,9.1686 -20.45934,20.47065"
             id="path19" /></g></g><path
         id="Discord-Logo-White"
         class="cls-1"
         d="m 203.07145,85.156216 c -0.27959,0.496398 -0.53064,1.009917 -0.75886,1.53485 -2.16819,-0.325226 -4.37632,-0.325226 -6.5502,0 -0.22252,-0.524933 -0.4793,-1.038451 -0.75887,-1.53485 -2.03696,0.348066 -4.02256,0.958577 -5.90545,1.820126 -3.73158,5.528881 -4.74149,10.915106 -4.23937,16.227148 2.18529,1.61474 4.63306,2.84717 7.24059,3.63457 0.58769,-0.7874 1.10692,-1.62613 1.55197,-2.49911 -0.84445,-0.31381 -1.66038,-0.7075 -2.44207,-1.16397 0.20541,-0.14834 0.40511,-0.3024 0.5991,-0.45076 4.58173,2.15678 9.88809,2.15678 14.47549,0 0.194,0.15976 0.39371,0.31382 0.59911,0.45076 -0.78169,0.46216 -1.59761,0.85016 -2.44776,1.16968 0.44505,0.87298 0.96426,1.71172 1.55197,2.49912 2.60745,-0.7874 5.05521,-2.01414 7.24069,-3.62885 0.59323,-6.162234 -1.0157,-11.502815 -4.25099,-16.232868 -1.87709,-0.861566 -3.86269,-1.472094 -5.89965,-1.81444 z m -8.78115,14.777918 c -1.40931,0 -2.579,-1.278108 -2.579,-2.858599 0,-1.580487 1.12404,-2.864289 2.57331,-2.864289 1.44927,0 2.60181,1.289507 2.57898,2.864289 -0.0228,1.574804 -1.13543,2.858599 -2.57329,2.858599 z m 9.50579,0 c -1.41505,0 -2.57329,-1.278108 -2.57329,-2.858599 0,-1.580487 1.12402,-2.864289 2.57329,-2.864289 1.44927,0 2.59612,1.289507 2.57328,2.864289 -0.0228,1.574804 -1.13544,2.858599 -2.57328,2.858599 z M 222.88161,88.1641 h 8.51598 c 2.05257,0 3.78904,0.320252 5.2094,0.960783 1.30772,0.549786 2.41814,1.482931 3.18491,2.676451 0.71779,1.179035 1.08562,2.537847 1.06059,3.917964 0.0158,1.386467 -0.36639,2.748349 -1.10116,3.924217 -0.81963,1.242155 -1.99171,2.211085 -3.36584,2.782515 -1.50564,0.68626 -3.37207,1.02837 -5.59932,1.02626 H 222.8816 V 88.164099 Z m 7.81722,11.398309 c 1.38293,0 2.44561,-0.34521 3.18802,-1.035651 0.7616,-0.738552 1.11838,-1.744542 1.11363,-2.829302 0.004,-1.004272 -0.31181,-1.941016 -0.99195,-2.651489 -0.66547,-0.661306 -1.6668,-0.993016 -3.004,-0.995096 h -2.66397 v 7.511538 z m 22.90579,3.864941 c -1.12349,-0.28151 -2.19822,-0.73055 -3.18803,-1.33197 v -3.624747 c 0.86415,0.628546 1.83717,1.091776 2.86985,1.366302 1.12972,0.344685 2.30329,0.524335 3.48438,0.533415 0.40763,0.0217 0.8149,-0.0486 1.19162,-0.20586 0.26827,-0.13727 0.40239,-0.311945 0.40239,-0.492875 0.006,-0.204336 -0.0732,-0.401936 -0.21836,-0.545886 -0.24916,-0.191647 -0.54161,-0.319113 -0.8516,-0.371224 l -2.6203,-0.58958 c -1.50147,-0.349366 -2.56725,-0.83289 -3.19737,-1.450514 -0.63956,-0.645068 -0.97905,-1.528903 -0.93582,-2.436249 -0.0106,-0.813313 0.28573,-1.600742 0.82976,-2.205424 0.645,-0.682292 1.4584,-1.182608 2.35827,-1.450514 1.15802,-0.363985 2.36743,-0.5378 3.58107,-0.514692 1.13295,-0.01065 2.26275,0.121409 3.3627,0.393048 0.88846,0.210493 1.74167,0.548846 2.53295,1.004448 v 3.431328 c -0.74205,-0.430531 -1.53978,-0.75694 -2.37074,-0.970134 -0.90033,-0.24141 -1.82856,-0.363063 -2.76067,-0.361838 -1.36838,0 -2.05257,0.232904 -2.05257,0.698739 -0.005,0.212087 0.11826,0.4063 0.31194,0.492876 0.37385,0.158944 0.76558,0.272083 1.16664,0.336902 l 2.18358,0.39304 c 1.41831,0.249537 2.47578,0.686267 3.17244,1.310148 0.69667,0.62388 1.04604,1.536838 1.04812,2.73887 0.0226,1.286171 -0.63879,2.487791 -1.73751,3.156821 -1.15001,0.77153 -2.79187,1.15626 -4.92554,1.15418 -1.22695,0.002 -2.44913,-0.1522 -3.63723,-0.45856 z m 15.45975,-0.45855 c -1.16741,-0.53641 -2.15132,-1.40425 -2.82931,-2.49552 -0.63241,-1.070151 -0.95631,-2.294499 -0.93581,-3.537405 -0.0188,-1.24215 0.32244,-2.463181 0.9826,-3.515564 0.70365,-1.074148 1.70535,-1.91972 2.88232,-2.433146 1.43107,-0.623562 2.98136,-0.925949 4.54186,-0.885915 2.18356,0 3.99595,0.458563 5.43711,1.375655 v 4.002175 c -0.54827,-0.368573 -1.14722,-0.655435 -1.77806,-0.851594 -0.7062,-0.222925 -1.44307,-0.333463 -2.18358,-0.327525 -1.35383,0 -2.41337,0.247466 -3.17867,0.742414 -1.07562,0.600312 -1.46093,1.958931 -0.86062,3.034548 0.19559,0.350447 0.48214,0.641666 0.82941,0.842875 0.74243,0.501191 1.81966,0.751767 3.23171,0.751767 0.72885,0.002 1.45401,-0.103346 2.15237,-0.311926 0.637,-0.18265 1.24891,-0.443565 1.82174,-0.776735 v 3.868066 c -1.68789,0.98409 -3.61478,1.48281 -5.56815,1.44115 -1.56555,0.0427 -3.12016,-0.2731 -4.54495,-0.92335 z m 15.51592,0 c -1.1805,-0.53905 -2.18183,-1.40506 -2.88543,-2.49552 -0.66308,-1.067631 -1.00723,-2.302543 -0.99196,-3.559246 -0.0211,-1.241816 0.32383,-2.462377 0.99196,-3.509342 0.70733,-1.062732 1.70433,-1.900595 2.87297,-2.414416 2.8706,-1.164641 6.0821,-1.164641 8.95269,0 1.16404,0.509911 2.15696,1.343657 2.8605,2.401944 0.66367,1.050831 1.00521,2.272927 0.9826,3.515573 0.0155,1.255445 -0.32522,2.489565 -0.9826,3.559247 -0.69592,1.09121 -1.69257,1.95787 -2.86986,2.49552 -2.85136,1.22282 -6.07946,1.22282 -8.93083,0 v 0.006 z m 6.63498,-3.874291 c 0.54528,-0.562911 0.83418,-1.325853 0.79858,-2.108721 0.0382,-0.775896 -0.25167,-1.532082 -0.79858,-2.083771 -0.59282,-0.543662 -1.38062,-0.823881 -2.18357,-0.776735 -0.80226,-0.04227 -1.58819,0.237383 -2.18359,0.776735 -0.54476,0.552847 -0.83322,1.30853 -0.79543,2.083771 -0.0353,0.782263 0.25225,1.544702 0.79543,2.108721 0.58979,0.550445 1.37796,0.837546 2.18359,0.795426 0.80634,0.0469 1.59634,-0.24086 2.18357,-0.795426 z m 19.27166,-8.185332 v 4.722781 c -0.65188,-0.388997 -1.40332,-0.578764 -2.16175,-0.545885 -1.16354,0 -2.06193,0.355597 -2.6858,1.060585 -0.62389,0.704981 -0.93583,1.799888 -0.93583,3.28474 v 4.017802 h -5.34978 V 90.675224 h 5.24059 v 4.055234 c 0.29114,-1.484826 0.76116,-2.579758 1.40996,-3.28473 0.63663,-0.7016 1.56124,-1.070216 2.49552,-1.060594 0.69229,-8.39e-4 1.38851,0.16281 1.98709,0.524043 z m 17.77437,-3.181782 v 15.721785 h -5.34977 v -2.86985 c -0.40347,1.02168 -1.12826,1.88445 -2.06505,2.45808 -1.03416,0.5892 -2.21042,0.8827 -3.40015,0.84848 -1.11959,0.0261 -2.22162,-0.28122 -3.16621,-0.8828 -0.91474,-0.59425 -1.64342,-1.43427 -2.10247,-2.42376 -0.50088,-1.092232 -0.75033,-2.28294 -0.72995,-3.484386 -0.0352,-1.245682 0.23012,-2.481508 0.77363,-3.602912 0.49957,-1.027153 1.27921,-1.892226 2.24908,-2.495507 0.99697,-0.604011 2.14418,-0.914316 3.30967,-0.895276 2.54545,0 4.2559,1.106356 5.13142,3.319061 v -5.692915 h 5.34978 z m -6.13588,11.292243 c 0.55128,-0.542631 0.84904,-1.292057 0.8204,-2.06505 0.0234,-0.750156 -0.27516,-1.47446 -0.8204,-1.990175 -1.26165,-1.02717 -3.0712,-1.02717 -4.33286,0 -0.54371,0.527483 -0.83746,1.261291 -0.80793,2.018248 -0.0277,0.763994 0.2692,1.504009 0.81728,2.037008 0.57896,0.53818 1.35032,0.820416 2.13991,0.782956 0.80371,0.0444 1.59121,-0.237966 2.18357,-0.782956 z M 245.36314,87.243897 c 1.473,0 2.66709,1.07258 2.66709,2.395695 0,1.323132 -1.19409,2.395712 -2.66709,2.395712 -1.473,0 -2.6671,-1.07258 -2.6671,-2.395712 0,-1.323115 1.1941,-2.395695 2.6671,-2.395695 z m -2.67021,6.44156 c 1.70678,0.717334 3.63051,0.717334 5.3373,0 v 9.832353 h -5.3373 z"
         style="stroke-width:0.225911" /><path
         style="fill:#ffffff;fill-opacity:1;stroke:#ffffff;stroke-width:2;stroke-linecap:round;stroke-dasharray:none;stroke-opacity:1"
         d="m 170.66667,83.3981 v 25.2038"
         id="path20" /></g><text
       xml:space="preserve"
       style="font-style:normal;font-variant:normal;font-weight:normal;font-stretch:normal;font-size:25.6149px;font-family:'MS PGothic';-inkscape-font-specification:'MS PGothic';text-align:start;writing-mode:lr-tb;direction:ltr;text-anchor:start;fill:#ffffff;fill-opacity:1;stroke:#ffffff;stroke-width:1.66667;stroke-linecap:round;stroke-dasharray:none;stroke-opacity:1"
       x="65.07399"
       y="105.28665"
       id="text27"><tspan
         sodipodi:role="line"
         id="tspan27"
         style="font-style:normal;font-variant:normal;font-weight:normal;font-stretch:normal;font-family:'Trebuchet MS';-inkscape-font-specification:'Trebuchet MS';fill:#ffffff;fill-opacity:1;stroke:#ffffff;stroke-width:1.66667;stroke-dasharray:none;stroke-opacity:1"
         x="65.07399"
         y="105.28665">Discord Social SDK</tspan></text><text
       xml:space="preserve"
       style="font-style:normal;font-variant:normal;font-weight:normal;font-stretch:normal;font-size:7.11111px;font-family:'MS PGothic';-inkscape-font-specification:'MS PGothic';text-align:start;writing-mode:lr-tb;direction:ltr;text-anchor:start;fill:#ffffff;fill-opacity:1;stroke:#ffffff;stroke-width:0.333333;stroke-linecap:round;stroke-dasharray:none;stroke-opacity:1"
       x="66.703079"
       y="80.027657"
       id="text27-9"><tspan
         sodipodi:role="line"
         id="tspan27-3"
         style="font-style:normal;font-variant:normal;font-weight:normal;font-stretch:normal;font-size:7.11111px;font-family:'Trebuchet MS';-inkscape-font-specification:'Trebuchet MS';fill:#ffffff;fill-opacity:1;stroke:#ffffff;stroke-width:0.333333;stroke-dasharray:none;stroke-opacity:1"
         x="66.703079"
         y="80.027657">nonofficial</tspan></text><g
       id="g5"
       transform="rotate(30,1.7863366,54.143597)"><g
         id="g28"
         transform="translate(-7.8438164,26.311773)"><ellipse
           style="fill:#fff993;fill-opacity:1;stroke:#000000;stroke-width:1;stroke-linecap:round;stroke-dasharray:none;stroke-opacity:1"
           id="path21"
           cx="63.945652"
           cy="49.174919"
           rx="9.2799511"
           ry="10.930117" /><ellipse
           style="fill:#fff993;fill-opacity:1;stroke:#000000;stroke-width:1;stroke-linecap:round;stroke-dasharray:none;stroke-opacity:1"
           id="path21-1"
           cx="19.536409"
           cy="49.174915"
           rx="9.2799511"
           ry="10.930117" /><ellipse
           style="fill:#4085e9;fill-opacity:1;stroke:#000000;stroke-width:1;stroke-linecap:round;stroke-dasharray:none;stroke-opacity:1"
           id="path26"
           cx="42.641491"
           cy="31.47492"
           rx="4.811552"
           ry="4.4322138" /><rect
           style="fill:#fd735e;fill-opacity:1;stroke:#000000;stroke-width:1;stroke-linecap:round;stroke-dasharray:none;stroke-opacity:1"
           id="rect2"
           width="48.926331"
           height="39.225403"
           x="17.711412"
           y="31.377398"
           rx="14.339387"
           ry="14.339387" /><rect
           style="fill:#000000;fill-opacity:1;stroke-width:1.90454;stroke-linecap:round"
           id="rect2-5"
           width="42.608322"
           height="31.010044"
           x="21.33733"
           y="33.669895"
           rx="12.130807"
           ry="12.130807" /><path
           id="path21-14"
           style="fill:#fff993;fill-opacity:1;stroke:none;stroke-width:1.10775;stroke-linecap:round;stroke-dasharray:none;stroke-opacity:1"
           d="m 42.174479,66.914062 a 9.51332,11.204983 0 0 0 -6.604818,3.140625 h 13.209636 a 9.51332,11.204983 0 0 0 -6.604818,-3.140625 z" /></g><path
         style="baseline-shift:baseline;display:inline;overflow:visible;vector-effect:none;fill:#3f86e9;stroke:#000000;stroke-linecap:round;stroke-opacity:1;enable-background:accumulate;stop-color:#000000"
         d="m 45.189453,85.417969 a 2.6666651,2.6666651 0 0 0 -1.28125,3.546875 c 1.91632,4.088394 2.916654,7.352276 2.791016,9.416015 -0.125639,2.063741 -0.821227,3.292771 -3.970703,4.810551 a 2.6666651,2.6666651 0 0 0 -1.244141,3.56054 2.6666651,2.6666651 0 0 0 3.560547,1.24414 c 4.2459,-2.04616 6.746243,-5.47572 6.978515,-9.291012 0.232273,-3.815296 -1.246642,-7.650649 -3.287109,-12.003906 a 2.6666651,2.6666651 0 0 0 -3.546875,-1.283203 z"
         id="path27" /><path
         style="baseline-shift:baseline;display:inline;overflow:visible;vector-effect:none;fill:#3f86e9;stroke:#000000;stroke-linecap:round;stroke-opacity:1;enable-background:accumulate;stop-color:#000000"
         d="m 23.464844,85.585937 a 2.6666651,2.6666651 0 0 0 -3.546875,1.283204 c -2.040467,4.353257 -3.517429,8.186657 -3.285157,12.001953 0.232273,3.815296 2.732615,7.246806 6.978516,9.292966 a 2.6666651,2.6666651 0 0 0 3.558594,-1.24609 2.6666651,2.6666651 0 0 0 -1.244141,-3.55859 c -3.149476,-1.51778 -3.845064,-2.74877 -3.970703,-4.812505 -0.125639,-2.06374 0.876649,-5.327621 2.792969,-9.416016 a 2.6666651,2.6666651 0 0 0 -1.283203,-3.544922 z"
         id="path27-3" /><g
         id="g27"
         transform="translate(-7.8438164,26.311773)"><path
           id="rect22"
           style="fill:#fd735e;stroke:#000000;stroke-width:1;stroke-linecap:round;stroke-dasharray:none;stroke-opacity:1"
           d="m 32.49219,76.70139 c 7.876189,-1.983633 10.732135,-1.925291 18.666667,0 5.333334,3.298614 5.333334,10.666666 5.333334,10.666666 C 54.218541,95.853432 53.319203,96 42.174479,96 c -12.841145,0 -12.702699,2e-6 -15.015622,-8.631944 0,0 0,-7.368052 5.333333,-10.666666 z"
           sodipodi:nodetypes="cccccc" /><path
           id="rect23"
           style="fill:#fff993;fill-opacity:1;stroke:none;stroke-width:1.30274;stroke-linecap:round;stroke-dasharray:none;stroke-opacity:1"
           d="m 37,75.3125 v 0.0052 c 0.01042,-0.0018 0.02084,-0.0034 0.03125,-0.0052 z m 4.802734,0.292968 c -1.976526,-0.0055 -3.954665,0.26382 -6.461588,0.811198 v 3.113282 c 0,0.999033 0.804352,1.803385 1.803385,1.803385 h 10.059896 c 0.999033,0 1.803385,-0.804352 1.803385,-1.803385 v -2.942709 c -2.872225,-0.642719 -5.045569,-0.97578 -7.205078,-0.981771 z" /><path
           style="fill:none;fill-opacity:1;stroke:#000000;stroke-width:0.666667;stroke-linecap:round;stroke-dasharray:none;stroke-opacity:1"
           d="M 27.227722,85.621442 56.000003,85.333336"
           id="path25" /></g><path
         style="fill:none;fill-opacity:1;stroke:#000000;stroke-width:0.666667;stroke-linecap:round;stroke-dasharray:none;stroke-opacity:1"
         d="m 18.333334,90.666669 c 1.47558,1.606176 3.156722,2.201674 5,2"
         id="path31"
         sodipodi:nodetypes="cc" /><path
         style="fill:none;fill-opacity:1;stroke:#000000;stroke-width:0.666667;stroke-linecap:round;stroke-dasharray:none;stroke-opacity:1"
         d="m 16.969905,96.666669 c 1.47558,1.606176 3.156722,2.201674 5,2"
         id="path31-6"
         sodipodi:nodetypes="cc" /><path
         style="fill:none;fill-opacity:1;stroke:#000000;stroke-width:0.666667;stroke-linecap:round;stroke-dasharray:none;stroke-opacity:1"
         d="m 18.050253,103.45466 c 2.179126,0.0923 3.788955,-0.67532 4.949748,-2.12132"
         id="path31-6-6"
         sodipodi:nodetypes="cc" /><path
         style="fill:none;fill-opacity:1;stroke:#000000;stroke-width:0.666667;stroke-linecap:round;stroke-dasharray:none;stroke-opacity:1"
         d="m 50.611072,103.45466 c -2.179126,0.0923 -3.788955,-0.67532 -4.949748,-2.12132"
         id="path31-6-6-6"
         sodipodi:nodetypes="cc" /><path
         style="fill:none;fill-opacity:1;stroke:#000000;stroke-width:0.666667;stroke-linecap:round;stroke-dasharray:none;stroke-opacity:1"
         d="m 50.69142,90.666669 c -1.47558,1.606176 -3.156722,2.201674 -5,2"
         id="path31-7"
         sodipodi:nodetypes="cc" /><path
         style="fill:none;fill-opacity:1;stroke:#000000;stroke-width:0.666667;stroke-linecap:round;stroke-dasharray:none;stroke-opacity:1"
         d="m 51.69142,96.666669 c -1.47558,1.606176 -3.156722,2.201674 -5,2"
         id="path31-7-9"
         sodipodi:nodetypes="cc" /><g
         id="g4"><ellipse
           style="fill:#fff993;fill-opacity:1;stroke:none;stroke-width:4.31908;stroke-linecap:round;stroke-dasharray:none;stroke-opacity:1"
           id="path29"
           cx="34.666668"
           cy="82.666672"
           rx="2.666667"
           ry="5.3333321" /><path
           style="fill:#fff993;fill-opacity:1;stroke:none;stroke-width:5.33333;stroke-linecap:round;stroke-dasharray:none;stroke-opacity:1"
           id="path30"
           sodipodi:type="arc"
           sodipodi:cx="-22.346294"
           sodipodi:cy="-74.666672"
           sodipodi:rx="4.3203735"
           sodipodi:ry="4.3203735"
           sodipodi:start="0"
           sodipodi:end="3.1415927"
           sodipodi:arc-type="slice"
           d="m -18.025921,-74.666672 a 4.3203735,4.3203735 0 0 1 -2.160187,3.741554 4.3203735,4.3203735 0 0 1 -4.320373,-10e-7 4.3203735,4.3203735 0 0 1 -2.160187,-3.741553 h 4.320374 z"
           transform="scale(-1)" /><path
           style="fill:#fff993;fill-opacity:1;stroke:none;stroke-width:5.33333;stroke-linecap:round;stroke-dasharray:none;stroke-opacity:1"
           id="path30-4"
           sodipodi:type="arc"
           sodipodi:cx="-47"
           sodipodi:cy="-74.666672"
           sodipodi:rx="4.3203735"
           sodipodi:ry="4.3203735"
           sodipodi:start="0"
           sodipodi:end="3.1415927"
           sodipodi:arc-type="slice"
           d="m -42.679626,-74.666672 a 4.3203735,4.3203735 0 0 1 -2.160187,3.741554 4.3203735,4.3203735 0 0 1 -4.320374,-10e-7 4.3203735,4.3203735 0 0 1 -2.160187,-3.741553 H -47 Z"
           transform="scale(-1)" /><path
           style="fill:none;fill-opacity:1;stroke:#fff993;stroke-width:0.666667;stroke-linecap:round;stroke-dasharray:none;stroke-opacity:1"
           d="m 24.000001,82.666669 c 2.666667,0 5.333333,2.666666 5.333333,5.333333"
           id="path32"
           sodipodi:nodetypes="cc" /><path
           style="fill:none;fill-opacity:1;stroke:#fff993;stroke-width:0.666667;stroke-linecap:round;stroke-dasharray:none;stroke-opacity:1"
           d="m 45.333335,82.627396 c -2.666667,0 -5.333333,2.666666 -5.333333,5.333333"
           id="path32-0"
           sodipodi:nodetypes="cc" /></g></g><g
       id="g3"><path
         id="path33"
         style="fill:#e0e3ff;fill-opacity:1;stroke:none;stroke-width:0.666667;stroke-linecap:round;stroke-dasharray:none;stroke-opacity:1"
         d="M 237.41276 19.247396 A 18.666668 18.666668 0 0 0 219.0306 34.666666 L 255.79427 34.666666 A 18.666668 18.666668 0 0 0 237.41276 19.247396 z " /><path
         id="path33-0"
         style="fill:#e0e3ff;fill-opacity:1;stroke:none;stroke-width:0.666667;stroke-linecap:round;stroke-dasharray:none;stroke-opacity:1"
         d="M 256.07943 3.2473958 A 18.666668 18.666668 0 0 0 237.41276 21.914062 A 18.666668 18.666668 0 0 0 242.44792 34.666666 L 269.71094 34.666666 A 18.666668 18.666668 0 0 0 274.74609 21.914062 A 18.666668 18.666668 0 0 0 256.07943 3.2473958 z " /><path
         id="path33-4"
         style="fill:#e0e3ff;fill-opacity:1;stroke:none;stroke-width:0.666667;stroke-linecap:round;stroke-dasharray:none;stroke-opacity:1"
         d="M 288.07943 11.247396 A 18.666668 18.666668 0 0 0 269.41276 29.914062 A 18.666668 18.666668 0 0 0 270.02799 34.666666 L 306.13086 34.666666 A 18.666668 18.666668 0 0 0 306.74609 29.914062 A 18.666668 18.666668 0 0 0 288.07943 11.247396 z " /><path
         id="path33-3"
         style="fill:#e0e3ff;fill-opacity:1;stroke:none;stroke-width:0.666667;stroke-linecap:round;stroke-dasharray:none;stroke-opacity:1"
         d="M 309.41276 8.5807291 A 18.666668 18.666668 0 0 0 290.74609 27.247396 A 18.666668 18.666668 0 0 0 292.28385 34.666666 L 326.54167 34.666666 A 18.666668 18.666668 0 0 0 328.07943 27.247396 A 18.666668 18.666668 0 0 0 309.41276 8.5807291 z " /><path
         id="path33-07"
         style="fill:#e0e3ff;fill-opacity:1;stroke:none;stroke-width:0.666667;stroke-linecap:round;stroke-dasharray:none;stroke-opacity:1"
         d="M 274.74609 3.2473958 A 18.666668 18.666668 0 0 0 256.07943 21.914062 A 18.666668 18.666668 0 0 0 261.11458 34.666666 L 288.3776 34.666666 A 18.666668 18.666668 0 0 0 293.41276 21.914062 A 18.666668 18.666668 0 0 0 274.74609 3.2473958 z " /><path
         id="path33-5"
         style="fill:#e0e3ff;fill-opacity:1;stroke:none;stroke-width:0.666667;stroke-linecap:round;stroke-dasharray:none;stroke-opacity:1"
         d="M 317.41276 27.247396 A 18.666668 18.666668 0 0 0 302.51497 34.666666 L 332.30989 34.666666 A 18.666668 18.666668 0 0 0 317.41276 27.247396 z " /></g><path
       sodipodi:type="star"
       style="fill:#e0e3ff;fill-opacity:1;stroke:#fff993;stroke-width:0.333333;stroke-opacity:1"
       id="path22"
       inkscape:flatsided="false"
       sodipodi:sides="4"
       sodipodi:cx="69.333336"
       sodipodi:cy="26.666668"
       sodipodi:r1="19.229607"
       sodipodi:r2="4.8074017"
       sodipodi:arg1="0.98279372"
       sodipodi:arg2="1.7681919"
       inkscape:rounded="0"
       inkscape:randomized="0"
       d="M 80.000002,42.666668 68.390527,31.380713 53.333336,37.333335 64.619291,25.723859 58.666669,10.666668 70.276145,21.952623 85.333336,16.000001 74.047381,27.609477 Z"
       inkscape:transform-center-x="-0.46320823"
       inkscape:transform-center-y="-0.58281612"
       transform="matrix(0.39682095,0.22910468,-0.22910468,0.39682095,23.398836,-11.259402)" /><path
       sodipodi:type="star"
       style="fill:#e0e3ff;fill-opacity:1;stroke:#fff993;stroke-width:0.333333;stroke-opacity:1"
       id="path22-9"
       inkscape:flatsided="false"
       sodipodi:sides="4"
       sodipodi:cx="69.333336"
       sodipodi:cy="26.666668"
       sodipodi:r1="19.229607"
       sodipodi:r2="4.8074017"
       sodipodi:arg1="0.98279372"
       sodipodi:arg2="1.7681919"
       inkscape:rounded="0"
       inkscape:randomized="0"
       d="M 80.000002,42.666668 68.390527,31.380713 53.333336,37.333335 64.619291,25.723859 58.666669,10.666668 70.276145,21.952623 85.333336,16.000001 74.047381,27.609477 Z"
       inkscape:transform-center-x="-0.57250314"
       inkscape:transform-center-y="-0.7203325"
       transform="matrix(0.49045156,0.28316234,-0.28316234,0.49045156,29.519066,-5.7542675)" /><path
       sodipodi:type="star"
       style="fill:#e0e3ff;fill-opacity:1;stroke:#fff993;stroke-width:0.333333;stroke-opacity:1"
       id="path22-7"
       inkscape:flatsided="false"
       sodipodi:sides="4"
       sodipodi:cx="69.333336"
       sodipodi:cy="26.666668"
       sodipodi:r1="19.229607"
       sodipodi:r2="4.8074017"
       sodipodi:arg1="0.98279372"
       sodipodi:arg2="1.7681919"
       inkscape:rounded="0"
       inkscape:randomized="0"
       d="M 80.000002,42.666668 68.390527,31.380713 53.333336,37.333335 64.619291,25.723859 58.666669,10.666668 70.276145,21.952623 85.333336,16.000001 74.047381,27.609477 Z"
       inkscape:transform-center-x="-0.29258182"
       inkscape:transform-center-y="-0.36813115"
       transform="matrix(0.25064902,0.14471228,-0.14471228,0.25064902,51.399158,-1.7624936)" /></g></svg>
